<svg id="Capa_1" data-name="Capa 1" xmlns="http://www.w3.org/2000/svg" xmlns:xlink="http://www.w3.org/1999/xlink" viewBox="0 0 512 423.53"><defs><style>.cls-1{fill:url(#Новый_образец_градиентной_залив);}</style><linearGradient id="Новый_образец_градиентной_залив" x1="-19.66" y1="433.68" x2="428.4" y2="70.85" gradientUnits="userSpaceOnUse"><stop offset="0" stop-color="#188ac7"/><stop offset="1" stop-color="#85b8dc"/></linearGradient></defs><title>cam</title><path class="cls-1" d="M511.61,176A15.21,15.21,0,0,0,501.33,165L115,44.92a15.19,15.19,0,0,0-19,10L44.34,221.16a15.16,15.16,0,0,0,10,19l123.57,38.4-12.47,40.14a15.18,15.18,0,0,0,10,19l30.14,9.36-9.2,33.15H88.08a61.81,61.81,0,0,0-61.42-55.57H15.18A15.18,15.18,0,0,0,0,339.8V452.58a15.18,15.18,0,0,0,15.18,15.18H26.66a61.78,61.78,0,0,0,61.54-57.2H207.89a15.19,15.19,0,0,0,14.63-11.12l12-43.37,27.65,8.59a15.07,15.07,0,0,0,4.5.68,15.16,15.16,0,0,0,14.5-10.67l12.47-40.14L347,331.1a15.14,15.14,0,0,0,14.92-3.45l16.41-15.48,70.45,21.89a15.18,15.18,0,0,0,19-10l26.31-84.68a15.18,15.18,0,0,0-10-19l-6.42-2,29.56-27.89A15.19,15.19,0,0,0,511.61,176ZM58,406a31.42,31.42,0,0,1-27.67,31.15v-82A31.41,31.41,0,0,1,58,386.35Zm198.69-74.87-57.8-18,8-25.64,57.8,18Zm186.58-30.6-39.63-12.32,48.68-45.94,8.25,2.57Zm-95.76-1.09L77.84,215.67,120.49,78.42l347,107.84Z" transform="translate(0 -44.24)"/></svg>