<svg id="Capa_1" data-name="Capa 1" xmlns="http://www.w3.org/2000/svg" xmlns:xlink="http://www.w3.org/1999/xlink" viewBox="0 0 372.3 372.29"><defs><style>.cls-1{fill:url(#Безымянный_градиент_24);}.cls-2{fill:url(#Безымянный_градиент_24-2);}</style><linearGradient id="Безымянный_градиент_24" x1="86.83" y1="365.7" x2="388.07" y2="121.75" gradientUnits="userSpaceOnUse"><stop offset="0" stop-color="#188ac7"/><stop offset="1" stop-color="#85b8dc"/></linearGradient><linearGradient id="Безымянный_градиент_24-2" x1="130.02" y1="333.37" x2="297.28" y2="197.93" xlink:href="#Безымянный_градиент_24"/></defs><title>car</title><path class="cls-1" d="M398.36,135h0L344.3,81a65.94,65.94,0,0,0-93.25,0h0L56,276.06a36.21,36.21,0,0,0,0,51.2l96.1,96.1a36.24,36.24,0,0,0,51.2,0L398.36,228.29A65.94,65.94,0,0,0,398.36,135ZM333,92.29l1.6,1.6a31.67,31.67,0,0,1-20.91,7.77,32.05,32.05,0,0,1-30.35-21.9A50,50,0,0,1,333,92.29ZM68.13,316.84l-.88-.87a20.27,20.27,0,0,1,0-28.61l.86-.86A23.61,23.61,0,0,1,68.13,316.84ZM192,412.08a20.25,20.25,0,0,1-28.6,0l-.86-.85a23.61,23.61,0,0,1,30.34,0ZM387.05,217,204.24,399.78a40,40,0,0,0-53.15,0L79.55,328.24a40,40,0,0,0,0-53.14L262.36,92.29A50.59,50.59,0,0,1,269,86.77a48,48,0,0,0,44.69,30.89,47.45,47.45,0,0,0,32.2-12.48l28.28,28.28a47.5,47.5,0,0,0-12.48,32.2,48,48,0,0,0,30.9,44.69A51.49,51.49,0,0,1,387.05,217Zm-9.38-51.32a31.56,31.56,0,0,1,7.82-20.87l1.6,1.6a50.07,50.07,0,0,1,12.48,49.67A32.08,32.08,0,0,1,377.67,165.66Z" transform="translate(-45.37 -61.66)"/><path class="cls-2" d="M328.65,241.73a244.73,244.73,0,0,0-91-91,7.53,7.53,0,0,0-9.6,1.34L228,152,100,280l0,0a7.85,7.85,0,0,0-1.6,2.11,8,8,0,0,0,.24,7.48,244.73,244.73,0,0,0,91,91,7.82,7.82,0,0,0,9.6-1.32l128-128v0A7.52,7.52,0,0,0,328.65,241.73Zm-109.74-58-8.44,33.81-24.8,24.8L173,229.66ZM161.67,241l12.69,12.68L157.9,270.12l-29.6,4.23Zm25.79,119.56a228.74,228.74,0,0,1-68.67-68.67l40.05-5.72,34.34,34.34ZM173,277.66,217.67,233l28.69,28.69-44.69,44.69ZM205,351l4.2-29.6L225.67,305l12.69,12.68Zm44.68-44.68L237,293.66l24.8-24.8,33.83-8.45Zm10.46-53.54-33.6-33.6,12.28-49.11a228.75,228.75,0,0,1,70.42,70.43Z" transform="translate(-45.37 -61.66)"/></svg>