<?xml version="1.0" encoding="UTF-8" standalone="no"?>
<!-- Generator: Adobe Illustrator 16.0.0, SVG Export Plug-In . SVG Version: 6.00 Build 0)  -->

<svg
   xmlns:dc="http://purl.org/dc/elements/1.1/"
   xmlns:cc="http://creativecommons.org/ns#"
   xmlns:rdf="http://www.w3.org/1999/02/22-rdf-syntax-ns#"
   xmlns:svg="http://www.w3.org/2000/svg"
   xmlns="http://www.w3.org/2000/svg"
   xmlns:sodipodi="http://sodipodi.sourceforge.net/DTD/sodipodi-0.dtd"
   xmlns:inkscape="http://www.inkscape.org/namespaces/inkscape"
   version="1.1"
   id="Capa_1"
   x="0px"
   y="0px"
   width="612px"
   height="612px"
   viewBox="0 0 612 612"
   style="enable-background:new 0 0 612 612;"
   xml:space="preserve"
   sodipodi:docname="clock.svg"
   inkscape:version="0.92.3 (2405546, 2018-03-11)"><metadata
   id="metadata45"><rdf:RDF><cc:Work
       rdf:about=""><dc:format>image/svg+xml</dc:format><dc:type
         rdf:resource="http://purl.org/dc/dcmitype/StillImage" /><dc:title></dc:title></cc:Work></rdf:RDF></metadata><defs
   id="defs43" /><sodipodi:namedview
   pagecolor="#ffffff"
   bordercolor="#666666"
   borderopacity="1"
   objecttolerance="10"
   gridtolerance="10"
   guidetolerance="10"
   inkscape:pageopacity="0"
   inkscape:pageshadow="2"
   inkscape:window-width="711"
   inkscape:window-height="480"
   id="namedview41"
   showgrid="false"
   inkscape:zoom="0.38562092"
   inkscape:cx="306"
   inkscape:cy="306"
   inkscape:window-x="0"
   inkscape:window-y="0"
   inkscape:window-maximized="0"
   inkscape:current-layer="g8" />
<g
   id="g8">
	<g
   id="g6"
   style="fill:#9baf53;fill-opacity:1">
		<path
   d="M587.572,186.881c-32.266-75.225-87.096-129.934-162.949-162.285C386.711,8.427,346.992,0.168,305.497,0.168    c-41.488,0-80.914,8.181-118.784,24.428C111.488,56.861,56.415,111.535,24.092,186.881C7.895,224.629,0,264.176,0,305.664    c0,41.496,7.895,81.371,24.092,119.127c32.323,75.346,87.403,130.348,162.621,162.621c37.877,16.247,77.295,24.42,118.784,24.42    c41.489,0,81.214-8.259,119.12-24.42c75.853-32.352,130.683-87.403,162.956-162.621C603.819,386.914,612,347.16,612,305.664    C612,264.176,603.826,224.757,587.572,186.881z M538.724,440.853c-24.021,41.195-56.929,73.876-98.375,98.039    c-41.195,24.021-86.332,36.135-134.845,36.135c-36.47,0-71.27-7.024-104.4-21.415c-33.129-14.384-61.733-33.294-85.661-57.215    c-23.928-23.928-42.973-52.811-57.214-85.997c-14.199-33.065-21.08-68.258-21.08-104.735c0-48.52,11.921-93.428,35.807-134.509    c23.971-41.231,56.886-73.947,98.039-98.04c41.146-24.092,85.99-36.142,134.502-36.142c48.52,0,93.649,12.121,134.845,36.142    c41.446,24.164,74.283,56.879,98.375,98.039c24.092,41.153,36.135,85.99,36.135,134.509    C574.852,354.185,562.888,399.399,538.724,440.853z"
   id="path2"
   style="fill:#9baf53;fill-opacity:1" />
		<path
   d="M324.906,302.988V129.659c0-10.372-9.037-18.738-19.41-18.738c-9.701,0-18.403,8.366-18.403,18.738v176.005    c0,0.336,0.671,1.678,0.671,2.678c-0.671,6.024,1.007,11.043,5.019,15.062l100.053,100.046c6.695,6.695,19.073,6.695,25.763,0    c7.694-7.695,7.188-18.86,0-26.099L324.906,302.988z"
   id="path4"
   style="fill:#9baf53;fill-opacity:1" />
	</g>
</g>
<g
   id="g10">
</g>
<g
   id="g12">
</g>
<g
   id="g14">
</g>
<g
   id="g16">
</g>
<g
   id="g18">
</g>
<g
   id="g20">
</g>
<g
   id="g22">
</g>
<g
   id="g24">
</g>
<g
   id="g26">
</g>
<g
   id="g28">
</g>
<g
   id="g30">
</g>
<g
   id="g32">
</g>
<g
   id="g34">
</g>
<g
   id="g36">
</g>
<g
   id="g38">
</g>
</svg>