<?xml version="1.0" encoding="UTF-8" standalone="no"?>
<!-- Generator: Adobe Illustrator 19.1.0, SVG Export Plug-In . SVG Version: 6.00 Build 0)  -->

<svg
   xmlns:dc="http://purl.org/dc/elements/1.1/"
   xmlns:cc="http://creativecommons.org/ns#"
   xmlns:rdf="http://www.w3.org/1999/02/22-rdf-syntax-ns#"
   xmlns:svg="http://www.w3.org/2000/svg"
   xmlns="http://www.w3.org/2000/svg"
   xmlns:sodipodi="http://sodipodi.sourceforge.net/DTD/sodipodi-0.dtd"
   xmlns:inkscape="http://www.inkscape.org/namespaces/inkscape"
   version="1.1"
   id="Capa_1"
   x="0px"
   y="0px"
   viewBox="0 0 477 477"
   style="enable-background:new 0 0 477 477;"
   xml:space="preserve"
   sodipodi:docname="placeholder.svg"
   inkscape:version="0.92.3 (2405546, 2018-03-11)"><metadata
   id="metadata45"><rdf:RDF><cc:Work
       rdf:about=""><dc:format>image/svg+xml</dc:format><dc:type
         rdf:resource="http://purl.org/dc/dcmitype/StillImage" /><dc:title></dc:title></cc:Work></rdf:RDF></metadata><defs
   id="defs43" /><sodipodi:namedview
   pagecolor="#ffffff"
   bordercolor="#666666"
   borderopacity="1"
   objecttolerance="10"
   gridtolerance="10"
   guidetolerance="10"
   inkscape:pageopacity="0"
   inkscape:pageshadow="2"
   inkscape:window-width="711"
   inkscape:window-height="480"
   id="namedview41"
   showgrid="false"
   inkscape:zoom="0.49475891"
   inkscape:cx="238.5"
   inkscape:cy="238.5"
   inkscape:window-x="1076"
   inkscape:window-y="374"
   inkscape:window-maximized="0"
   inkscape:current-layer="g8" />
<g
   id="g8">
	<g
   id="g6"
   style="fill:#9baf53;fill-opacity:1">
		<path
   d="M238.4,0C133,0,47.2,85.8,47.2,191.2c0,12,1.1,24.1,3.4,35.9c0.1,0.7,0.5,2.8,1.3,6.4c2.9,12.9,7.2,25.6,12.8,37.7    c20.6,48.5,65.9,123,165.3,202.8c2.5,2,5.5,3,8.5,3s6-1,8.5-3c99.3-79.8,144.7-154.3,165.3-202.8c5.6-12.1,9.9-24.7,12.8-37.7    c0.8-3.6,1.2-5.7,1.3-6.4c2.2-11.8,3.4-23.9,3.4-35.9C429.6,85.8,343.8,0,238.4,0z M399.6,222.4c0,0.2-0.1,0.4-0.1,0.6    c-0.1,0.5-0.4,2-0.9,4.3c0,0.1,0,0.1,0,0.2c-2.5,11.2-6.2,22.1-11.1,32.6c-0.1,0.1-0.1,0.3-0.2,0.4    c-18.7,44.3-59.7,111.9-148.9,185.6c-89.2-73.7-130.2-141.3-148.9-185.6c-0.1-0.1-0.1-0.3-0.2-0.4c-4.8-10.4-8.5-21.4-11.1-32.6    c0-0.1,0-0.1,0-0.2c-0.6-2.3-0.8-3.8-0.9-4.3c0-0.2-0.1-0.4-0.1-0.7c-2-10.3-3-20.7-3-31.2c0-90.5,73.7-164.2,164.2-164.2    s164.2,73.7,164.2,164.2C402.6,201.7,401.6,212.2,399.6,222.4z"
   id="path2"
   style="fill:#9baf53;fill-opacity:1" />
		<path
   d="M238.4,71.9c-66.9,0-121.4,54.5-121.4,121.4s54.5,121.4,121.4,121.4s121.4-54.5,121.4-121.4S305.3,71.9,238.4,71.9z     M238.4,287.7c-52.1,0-94.4-42.4-94.4-94.4s42.4-94.4,94.4-94.4s94.4,42.4,94.4,94.4S290.5,287.7,238.4,287.7z"
   id="path4"
   style="fill:#9baf53;fill-opacity:1" />
	</g>
</g>
<g
   id="g10">
</g>
<g
   id="g12">
</g>
<g
   id="g14">
</g>
<g
   id="g16">
</g>
<g
   id="g18">
</g>
<g
   id="g20">
</g>
<g
   id="g22">
</g>
<g
   id="g24">
</g>
<g
   id="g26">
</g>
<g
   id="g28">
</g>
<g
   id="g30">
</g>
<g
   id="g32">
</g>
<g
   id="g34">
</g>
<g
   id="g36">
</g>
<g
   id="g38">
</g>
</svg>